<?xml version="1.0" encoding="utf-8"?>
<!DOCTYPE svg PUBLIC "-//W3C//DTD SVG 1.1//EN" "http://www.w3.org/Graphics/SVG/1.1/DTD/svg11.dtd">
<svg version="1.1"
	 id="svg2" xmlns:dc="http://purl.org/dc/elements/1.1/" xmlns:cc="http://creativecommons.org/ns#" xmlns:rdf="http://www.w3.org/1999/02/22-rdf-syntax-ns#"
	 xmlns="http://www.w3.org/2000/svg" xmlns:xlink="http://www.w3.org/1999/xlink" x="0px" y="0px"
	 viewBox="-365.0673 -454.0216 1208.2484 1504.5944" enable-background="new -365.0673 -454.0216 1208.2484 1504.5944"
	 xml:space="preserve">
<g id="layer1" transform="translate(-139.19 -224.99)">
	<path id="path3081" fill="none" stroke="#000000" stroke-width="2.5615" d="M65.4417,989.1655c0,0-76.5178-14.3942-97.7298-62.1221
		c-21.2127-47.7288,14.3942-49.2427-1.5152-93.9413c-15.9096-44.6986-15.9096-49.2427-15.9096-49.2427
		s57.5779,8.3337,62.122,46.2125c4.5457,37.8799-31.061,65.9106,21.9702,97.7298c53.0312,31.8193,52.273,21.9703,52.273,21.9703
		L65.4417,989.1655z"/>
	<path id="path3075" fill="#FFFFFF" stroke="#000000" stroke-width="2.5615" d="M127.5586,570.9713
		c0,0-71.2129,171.2172-71.2129,275.7734c0,104.5485,16.6671,121.2164,16.6671,121.2164l-172.9745,29.6753
		c0,0-135.4225,34.729-118.7548,105.942c16.6671,71.2129,37.1754,94.6892,37.1754,94.6892s13.6288,66.428,95.3808,37.3291
		c90.2066-32.1113,243.7852-121.4213,243.7852-121.4213s113.8776,67.427,227.517,62.8802
		c113.6394-4.5457,212.8856-63.6384,212.8856-63.6384l235.6115,125.7605c0,0,68.2082,34.8136,96.9715-22.7279
		c7.3283-14.6597,32.0549-95.8344,40.9102-140.9119c8.8554-45.0802-57.642-63.4695-80.3063-69.6991
		c-116.4341-31.9985-198.4899-43.9404-198.4899-43.9404s22.7279-59.0918-4.5457-184.8522
		c-29.8315-137.5511-71.2129-206.0669-71.2129-206.0669L127.5586,570.9713z"/>
	<path id="path2999" fill="none" stroke="#000000" stroke-width="2.5615" d="M219.3379-5.5762
		C247.9245-77.683,335.298-87.2631,335.298-87.2631l-38.8301-106.8795c57.2551-27.1316,80.1244-37.1241,145.7097-4.2857
		L400.0559-86.0082c0,0,93.2343,3.3353,119.2619,80.4318c38.8839-111.4724,82.8217-97.863,132.8533-102.8554
		c50.0317-4.9909,145.7097,4.2857,145.7097,4.2857S759.4298-1.5776,682.1691,44.7783
		c-42.8568,25.7125-119.9971,9.6426-119.9971,9.6426s207.6473,367.143,94.2846,505.6958
		c-115.7117,141.4243-472.3192,130.2176-561.4089,0C-16.5424,397.0118,193.6176,50.1176,193.6176,50.1176
		S142.19,75.8301,65.0497,41.5462C8.5681,16.4436-37.8057-117.0223-37.8057-117.0223s89.9991,0,141.4242,17.1424
		c51.4277,17.1425,78.5644,33.538,115.7117,94.2845L219.3379-5.5762z"/>
	<path id="path3001" stroke="#000000" stroke-width="2.513" d="M65.0574,449.5296
		c30.3079-287.121,596.8347-297.2391,625.7031-3.4148C719.6187,739.947,34.7546,736.6684,65.0574,449.5296z"/>
	<path id="path3003" stroke="#000000" stroke-width="6.5614" d="M8.7552-107.2174c-15.4526,0.3364-28.4944,4.582-35.8613,16.9701
		c0,0,19.3408-18.1584,62.1963-7.4443C77.947-86.9774,90.7777-67.7217,125.0637-68.795c34.286-1.0714,44.9855,3.2019,44.9855,3.2019
		s-25.646-17.6943-57.875-31.0585c-23.6308,7.0171-69.4249-11.3066-103.4215-10.5663L8.7552-107.2174z M678.5165-102.1712
		c-22.4025,0.3433-46.3712,3.9693-60.7567,15.6094c-28.9196,23.4023-55.9334,14.3857-64.2789,14.8888
		C530.1375-44.3849,524.7432-15.24,524.7432-15.24s63.1185-12.5694,83.3289-34.9802
		c44.6473-49.4886,125.4377-47.465,125.4377-47.465s-26.189-4.924-54.9933-4.4827L678.5165-102.1712z M793.6262-92.3252
		c0,0-11.6616,13.0738-49.3093,21.3729c-44.4758,9.8039-103.9005,41.7836-103.9005,41.7836s46.1663-16.8077,82.4503-10.7264
		c22.816,3.8244,35.3798,6.4837,35.3798,6.4837s26.8089-29.9877,35.3798-58.915V-92.3252z M465.7513-65.588
		c-7.5052,9.9971-52.506,34.3346-116.79,15.0489c-64.2942-19.2883-110.3248,24.565-110.3248,24.565s34.2783-18.1461,92.1354-10.6462
		c57.8545,7.4998,66.3716,28.8837,118.87,18.171c52.4984-10.7141,54.6731-16.0894,54.6731-16.0894s-13.9352-16.4132-38.5817-31.0585
		L465.7513-65.588z M37.7209-58.3133C9.3725-57.7412-9.9874-51.6692-9.9874-51.6692l20.4123,34.3398
		c0,0,34.2655-17.1916,95.3373-1.1207c61.0693,16.071,98.5392-1.0406,98.5392-1.0406s-24.6488,2.1304-88.9335-24.6547
		C87.2423-55.8638,59.77-58.7588,37.723-58.3136L37.7209-58.3133z M269.8589-1.8804
		c-38.5586,0.3453-82.8781,14.1176-99.8199,27.3775c-24.6424,19.2852-44.9855,32.0985-44.9855,32.0985
		s58.8971,1.1083,70.6826-9.6057c11.7855-10.714-10.7264,17.1302-10.7264,17.1302s32.2162-31.0585,78.2853-31.0585
		c46.0715,0,83.521,23.6018,124.2339,26.8166c40.7129,3.2142,161.7755-18.2508,161.7755-18.2508S354.2957,28.6744,315.7242,7.2475
		c-12.0533-6.6963-28.3407-9.2825-45.8666-9.1254L269.8589-1.8804z M691.4599,2.362c-13.2548,0.2269-31.0815,3.2601-54.2735,12.4075
		c-33.3279,13.1467-103.9825-5.3633-103.9825-5.3633s26.9037,25.6946,90.0529,25.6946c13.9283,0,55.2034,2.8386,50.3493,12.8875
		c38.0027-23.1646,49.2299-38.5817,49.2299-38.5817s-9.2871-7.4225-31.3787-7.0442L691.4599,2.362z M24.5931,5.4102
		c22.2868,28.6122,25.4551,26.4964,25.4551,26.4964s2.1793,0.4727,47.1474,1.1207c31.8525,0.4589,46.028-24.6547,46.028-24.6547
		s-24.6424,7.506-69.6426,5.3633C34.2078,11.861,26.0263,6.6707,24.5919,5.411L24.5931,5.4102z M262.1743,88.7391
		c0,0,142.5026,72.8497,228.2163,64.2788c85.7111-8.5711,134.9615,33.2204,134.9615,33.2204l-40.6641-85.7316
		c0,0-31.0662,22.4932-133.919,22.4932c-102.8553,0-188.5921-34.2604-188.5921-34.2604L262.1743,88.7391z M210.0473,91.8642
		c-24.7776,0.7651-46.4276,14.0085-46.4276,14.0085s-4.8971,8.345-9.6856,19.2913c92.7092-32.9822,129.6771-2.1613,129.6771-2.1613
		s-17.8315-29.0272-68.6001-31.0585c-1.674-0.0668-3.311-0.1312-4.963-0.0799L210.0473,91.8642z M228.7785,156.143
		c-18.2186,0.1258-33.5303,1.6933-42.9055,5.4432c-42.8287,17.1622-68.5719,47.1833-68.5719,47.1833l-18.171,46.028
		c0,0,50.3441-72.8446,114.6281-72.8446s182.1089-8.5652,182.1089-8.5652s-101.9921-17.6599-167.0599-17.2104L228.7785,156.143z
		 M502.9639,195.7698c-86.1466,0.5297-154.6314,11.847-180.7461,11.847c-27.8565,0-113.5881,5.3633-113.5881,5.3633
		s287.1723,4.2795,341.8096,8.5653c49.55,3.8864,110.3043,62.1963,110.3043,62.1963l-18.171-53.6331
		c0,0-27.8694-33.1896-122.1539-34.2604c-5.8928-0.0668-11.7072-0.1153-17.4504-0.0799L502.9639,195.7698z M227.9076,236.6004
		c0,0-83.5825,2.149-108.2243,19.2913c-24.6424,17.1425-36.4223,43.8661-36.4223,43.8661l-9.0452,43.3051
		c4.3764-17.4347,19.0341-58.6255,62.5985-77.5655c24.6424-10.7141,91.0929-28.8965,91.0929-28.8965L227.9076,236.6004z
		 M74.2162,343.0625c-1.2508,4.9832-1.681,8.1649-1.681,8.1649L74.2162,343.0625z"/>
	<path id="path3008" fill="#FFFFFF" stroke="#000000" stroke-width="11.2154" d="M316.1379,27.6724
		c-32.3648,0.0128-66.0002,41.138-80.127,72.1222c-15.3125,33.5867-19.2311,86.1901,8.6451,110.3862
		c28.7608,24.962,90.3808,22.6936,114.0672-7.1241c36.2968-45.6873,25.2771-150.7866-28.8171-172.662
		c-4.5101-1.8239-9.1447-2.7234-13.7682-2.7216V27.6724z M445.4153,27.6724c-4.6235-0.0017-9.2581,0.8977-13.7682,2.7216
		c-54.0943,21.8759-65.114,126.9747-28.8171,172.662c23.6884,29.8186,85.3064,32.0856,114.0672,7.1241
		c27.877-24.1946,23.9577-76.7995,8.6451-110.3862c-14.1273-30.9867-47.7647-72.112-80.127-72.1222V27.6724z"/>
	<path id="path3013" stroke="#000000" stroke-width="4.8715" d="M343.8279,96.0395c-14.0574,0.0052-28.6839,17.84-34.8213,31.2992
		c-6.651,14.5879-8.3457,37.4392,3.7624,47.9491c12.492,10.8421,39.2604,9.9095,49.5501-3.0418
		c15.7651-19.8444,10.9282-65.5032-12.5673-75.004c-1.959-0.7922-3.9153-1.2015-5.9235-1.2007L343.8279,96.0395z M417.4717,96.0395
		c-2.0081-0.0008-3.9644,0.4085-5.9235,1.2007c-23.4958,9.5017-28.333,55.1598-12.5673,75.004
		c10.2888,12.9513,37.0576,13.884,49.55,3.0418c12.1081-10.5089,10.4131-33.3612,3.7624-47.9491
		c-6.1362-13.4588-20.7635-31.2942-34.8214-31.2992L417.4717,96.0395z"/>
	
		<linearGradient id="path3020_1_" gradientUnits="userSpaceOnUse" x1="312.69" y1="514.8782" x2="366.0466" y2="375.4802" gradientTransform="matrix(1 0 0 -1 -139.19 820.99)">
		<stop  offset="0" style="stop-color:#4A4A4A"/>
		<stop  offset="0.5" style="stop-color:#333333;stop-opacity:0.498"/>
		<stop  offset="1" style="stop-color:#333333;stop-opacity:0"/>
	</linearGradient>
	<path id="path3020" fill="url(#path3020_1_)" d="M166.0071,439.7445c-11.4741-20.4783-12.7666-52.7494-2.715-75.9748
		c16.7649-38.7379,85.6394-35.7845,90.6369,22.8992c26.7525-67.0606-68.4387-91.3183-96.7897-44.5295
		c-14.2549,23.5258-21.9589,69.9373,8.8664,97.6042L166.0071,439.7445z"/>
	
		<linearGradient id="path3802_1_" gradientUnits="userSpaceOnUse" x1="-1770.6145" y1="514.8782" x2="-1717.2579" y2="375.4801" gradientTransform="matrix(-1 0 0 -1 -1182.2001 820.99)">
		<stop  offset="0" style="stop-color:#4A4A4A"/>
		<stop  offset="0.5" style="stop-color:#333333;stop-opacity:0.498"/>
		<stop  offset="1" style="stop-color:#333333;stop-opacity:0"/>
	</linearGradient>
	<path id="path3802" fill="url(#path3802_1_)" d="M595.9074,439.7445c11.4741-20.4783,12.7666-52.7494,2.715-75.9748
		c-16.7649-38.7379-85.6393-35.7845-90.6369,22.8992c-26.7525-67.0606,68.4388-91.3183,96.7897-44.5295
		c14.2549,23.5258,21.9589,69.9373-8.8665,97.6042L595.9074,439.7445z"/>
	<path id="path3832" fill="none" stroke="#FF0000" stroke-width="2.6309" stroke-linecap="round" stroke-linejoin="round" d="
		M307.0701,523.4294c0,0-9.3114,63.3439,76.1106,63.3439c84.2075,0,75.3011-62.1578,75.3011-62.1578"/>
	<path id="path3834" stroke="#000000" stroke-width="2.5615" d="M72.5627,351.1927c0,0,8.2701-61.3587,64.284-85.7111
		c24.6424-10.7141,91.0698-28.9273,91.0698-28.9273s-83.5697,2.1428-108.2115,19.2852
		C95.0627,272.982,83.2776,299.767,83.2776,299.767L72.5627,351.1927z"/>
	<path id="path3844" stroke="#000000" stroke-width="2.5615" d="M330.5849-82.0888c0,0,1.5152,13.6368,40.9101,12.1217
		c39.3962-1.5152,42.4265-9.0911,42.4265-9.0911l31.8192-130.3072l-0.0753-0.0523l-0.2257-0.1522l-0.3755-0.2451l-1.2824,4.2137
		l0.084-4.9573l-2.3369,4.4393l-0.2116-0.5515l-0.3587-5.5359l-1.2628-0.6647l-2.5451,3.4555l-0.4178-4.9181l-1.699-0.7846
		l-2.9796,4.113l-0.8505-5.7555l-2.1301-0.8445l-4.1665,4.8308l-0.5208-6.5332l-2.5562-0.8445l-4.5912,4.8508l-0.9435-6.4932
		l-2.9776-0.7846l-4.2531,4.173l-2.119-5.6358l-3.3935-0.6647l-4.2887,4.6917l-2.9106-5.8546l-3.8046-0.4849l-3.9406,5.2703
		l-4.0762-6.0137l-4.2108-0.2451l-4.724,5.9087l-4.0999-6.1131l-4.0082-0.1698l-3.2211,6.028l-4.7003-5.9653l-3.9002,0.2152
		l-3.4727,6.0081l-4.175-5.2534l-3.7347,0.5224l-2.5302,7.0473l-4.7286-5.7555l-3.5113,0.752l-1.1513,6.8721l-5.6033-5.1989
		l-3.2303,0.9041l-0.4724,8.1346l-5.6627-6.235l-2.892,0.9784l-0.4934,7.0468l-4.9068-5.0759l-2.4957,0.9751l0.6795,6.2599
		l-5.2298-4.3733l-2.0418,0.8942l0.7738,7.2896l-4.3589-5.6425l-1.5305,0.7357l2.062,6.3474l-1.1575,0.5868l-4.3705-5.1824
		l-0.7589,0.4035l-0.55,0.2989l-0.3347,0.1857l-0.1129,0.0638L330.5849-82.0888z"/>
	<path id="path3123" stroke="#000000" stroke-width="6.6867" d="M111.1392,618.0264l-28.894,92.1124
		c0,0,137.1285,11.7607,198.1978-7.5245s226.0544-1.0406,226.0544-1.0406s-66.3998-11.2502-109.2643-16.0894
		c-66.428-7.4999-158.6044,5.3384-213.2467-2.1613c-54.6424-7.4999-72.8446-65.3188-72.8446-65.3188L111.1392,618.0264z
		 M648.9821,640.5197c0,0-54.6859,79.2279-176.8245,91.0135c-122.141,11.7856-136.0552,4.3287-156.4117,9.6856
		c-20.3567,5.3569-18.171,9.6057-18.171,9.6057s42.8517-6.3977,175.705-1.0406c132.8533,5.3569,199.2378-32.1779,199.2378-32.1779
		l-23.566-77.0763L648.9821,640.5197z M104.8891,746.0031c-20.0972-0.0385-34.5011,1.601-34.5011,1.601l-6.4038,36.4223
		c0,0,46.0818-38.5894,136.0809-2.1613c89.9991,36.4281,162.8155-3.2019,162.8155-3.2019s-24.5993,7.4937-59.955,8.5652
		c-35.3567,1.0715-63.244-3.1958-110.3862-25.6946c-26.5169-12.6559-61.8121-15.4798-87.6527-15.5292L104.8891,746.0031z
		 M645.3704,757.3699c-20.2161,0.051-42.9465,1.1208-53.1516,5.2029c-10.7072,4.3033-68.5976,30.021-68.5976,30.021
		s88.8849-24.587,115.6682-21.3729c26.7858,3.2142,51.4712,18.171,51.4712,18.171l-7.5245-31.0585
		c0,0-17.6466-1.0114-37.8619-0.9606L645.3704,757.3699z M70.949,822.8475c-8.0673,0.1506-12.3273,0.8005-12.3273,0.8005v73.964
		c0,0,70.0935-28.94,144.6466,3.2019c106.4928,45.9128,201.3997,3.2019,201.3997,3.2019s-60.0959,18.2199-169.1399-36.4223
		c-81.7843-40.9818-140.3766-45.1981-164.5778-44.7472L70.949,822.8475z M489.348,823.1805
		c-80.606,1.0905-170.3412,26.1762-170.3412,26.1762s80.3421-19.0288,156.4117,8.0847s34.268-0.2961,123.1939,12.3273
		c63.8024,9.0571,101.7411,12.4874,101.7411,12.4874s2.1367-30.459-5.3633-55.3135c0,0-47.1167,32.0753-131.7596,4.963
		c-21.1326-6.7881-47.004-9.0933-73.8743-8.7347L489.348,823.1805z M690.507,916.5173c-8.481-0.1583-24.0537,4.6564-52.2704,24.5748
		c-54.6424,38.5714-181.0484,20.326-220.6905,28.8965c-18.7339,4.0505-31.4632,4.9381-39.7036,4.8029
		c31.6348,4.0687,169.2193,21.4781,248.6266,25.2151c91.0698,4.2857,108.2243-30.0184,108.2243-30.0184l-39.7036-9.6057
		c0,0,4.2919-7.5121,5.3633-38.5817c0,0-1.3649-5.1248-9.846-5.2831V916.5173z M377.8475,974.7919
		c-4.0413-0.5198-12.8076-1.601-12.8076-1.601S368.6511,974.6411,377.8475,974.7919z M172.3878,934.2686
		c-49.7627,0.2075-97.8988,21.7729-97.8988,21.7729c27.959-13.1053,105.0378,17.8164,130.3969,29.0579
		c-4.8892-7.8825,83.4928-7.2742,23.8542-38.6636c-17.1761-9.0399-36.8808-12.2484-56.3535-12.1672H172.3878z M204.8884,985.0995
		c0.7157,1.1539,3.4127,2.5207,8.8854,4.1625C213.3039,988.9466,209.5435,987.1627,204.8884,985.0995z M51.1176,973.1725
		l-54.1916,8.0048c0,0,25.2576-3.0782,30.979,14.8889c10.3854,32.6184,30.4975,57.0732,30.4975,57.0732
		s-1.6963-15.7971-7.3644-44.1068c-4.0062-20.0095,0.0799-35.8613,0.0799-35.8613L51.1176,973.1725z M753.6151,973.973
		c0,0,13.959,23.5465-1.0406,62.1169s-33.2203,69.6426-33.2203,69.6426s55.7388-37.4879,77.1658-72.8445
		c21.4282-35.3567,19.2913-44.9855,19.2913-44.9855l-62.1964-13.9283L753.6151,973.973z M82.9061,989.5023
		c0,0,14.2303,38.6584,14.9691,58.915c1.3349,36.6145-19.2913,108.2244-19.2913,108.2244s22.3355-9.0415,34.2604-18.171
		c7.6021-30.0261,8.596-39.6472,7.5245-75.0039c-0.987-32.5698-37.4623-73.964-37.4623-73.964L82.9061,989.5023z M-95.5194,996.4666
		c-78.3672,18.2641-168.9503,22.9453-105.8216,180.5873c45.1289,112.6942,107.1459,76.3539,186.5096,26.5758
		C-21.6622,1122.3038-31.2244,1070.1641-95.5194,996.4666z M852.0134,996.4666c-64.2941,73.6975-73.777,125.8373-80.6085,207.1631
		c79.3662,49.7781,141.3013,86.1184,186.4302-26.5758C1020.9639,1019.4127,930.3782,1014.7302,852.0134,996.4666z
		 M-55.9695,998.7079c9.8281,6.9423,50.211,38.1897,66.4408,92.8552c20.3567,68.5693-11.7671,107.1024-11.7671,107.1024
		l67.4807-35.3799c0,0-17.4399-51.0178-37.5417-87.8115c-18.194-33.3022-74.0767-70.0243-84.6097-76.7662H-55.9695z
		 M727.2673,1015.9725c-21.4929,25.9688-47.2448,24.7003-68.6796,52.0297c-22.1267,28.2125-3.2019,75.0039-3.2019,75.0039
		s17.799,6.8918,46.1074,25.6947c-25.1285-41.9578-19.0065-55.79-13.9347-83.5569c4.5411-24.8151,34.2399-62.3935,39.7036-69.1611
		L727.2673,1015.9725z M266.5006,1024.6975c0,0,39.1888,69.4967,84.6096,70.6826c63.2133,4.2858,71.8021,47.1475,71.8021,47.1475
		l46.028-73.8845c0,0-25.1821-18.6882-86.7716,6.4038C353.2414,1086.8322,266.5006,1024.6975,266.5006,1024.6975z M760.3878,1115.15
		c0,0-18.4722,22.1831-23.6142,35.3798c-4.1989,10.7778-5.2831,34.2604-5.2831,34.2604l25.7176,14.9594
		c0,0-8.8573-26.1071-8.5652-39.6241c0.3351-15.5018,11.7672-44.9855,11.7672-44.9855L760.3878,1115.15z"/>
	<path id="path3077" fill="#FFFFFF" stroke="#000000" stroke-width="2.5615" d="M341.5738,813.3938l36.3634,354.5659
		c0,0,6.0608,101.5183-112.123,103.0322c-118.1861,1.515-142.4283-40.9102-143.9422-110.6093
		c-1.5152-69.6991,65.1523-357.5884,65.1523-357.5884"/>
	<path id="path3079" fill="#FFFFFF" stroke="#000000" stroke-width="2.5615" d="M424.644,813.3938l-36.3634,354.5659
		c0,0-6.0608,101.5183,112.123,103.0322c118.1861,1.515,142.4283-40.9102,143.9422-110.6093
		c1.5152-69.6991-65.1523-357.5884-65.1523-357.5884"/>
	<path id="path3083" stroke="#000000" stroke-width="6.5614" d="M-105.7961,726.2508c0,0,11.3668,71.9685,32.58,94.6969
		c21.2127,22.7278,37.867,19.0169,60.5954,9.9259c0,0,39.4244-28.8633,7.6046-62.1964
		c-31.8198-33.3331-100.7806-42.424-100.7806-42.424L-105.7961,726.2508z M7.2311,818.3068c0,0-4.2795,12.9247-8.5652,17.2104
		c-4.2857,4.2856-23.0537,9.0452-23.0537,9.0452s10.1413,4.8828,16.57,4.8828c6.4284,0,17.6904-1.1207,17.6904-1.1207
		s9.1439-16.0897-2.6415-30.0184V818.3068z M-32.4725,871.9399c-9.6426,13.9283-4.8029,30.4975-4.8029,30.4975
		s11.7917-10.1968,19.2913-9.1254c7.4999,1.0714,14.969-17.1302,14.969-17.1302s-18.7373,4.3041-24.0942,2.1613
		c-5.3569-2.1428-5.3633-6.4038-5.3633-6.4038V871.9399z M7.7127,902.9984c0,0,0.4968,9.9446-5.8434,17.1301
		c-8.0355,9.107-32.7388,9.6057-32.7388,9.6057l6.4837,8.6451c0,0,31.0226,4.7783,40.6642-2.7216
		c9.6426-7.4999-1.0406-22.4932-1.0406-22.4932l-7.5245-10.1662H7.7127z M45.7359,935.0968c0,0,4.3533,10.7817-10.6462,17.2104
		c-14.9998,6.4283-30.5795,8.5652-30.5795,8.5652s35.4335,5.2751,45.5464,2.0812c10.1782-3.2143,11.7671-19.2913,11.7671-19.2913
		l-16.0894-8.5652L45.7359,935.0968z"/>
	<path id="path3091" fill="#808080" stroke="#000000" stroke-width="6.5614" d="M-102.5942,729.2735
		c0,0,25.7484,33.3639,50.7489,50.0291c25.0007,16.6671,39.4628,46.9886,39.4628,46.9886s2.4739-23.2997-18.9712-39.3834
		c-24.243-18.1823-71.2411-57.6343-71.2411-57.6343H-102.5942z M-76.979,742.161c0,0,16.624,6.8669,41.6247,23.534
		c25.0007,16.6671,25.0548,36.3428,25.0548,36.3428s6.015-13.6824-12.1672-33.3792
		c-18.1822-19.6976-54.5118-26.4964-54.5118-26.4964L-76.979,742.161z M-86.9848,764.1743c0,0,9.637,35.718,30.6589,52.3524
		c21.0214,16.634,34.099,9.5258,34.099,9.5258s-19.5852,1.4896-38.1026-22.173c-18.5175-23.6628-26.6552-39.7036-26.6552-39.7036
		L-86.9848,764.1743z"/>
	<path id="path3099" fill="#999999" stroke="#000000" stroke-width="6.5614" d="M366.8048-217.286l6.4837,142.4847l1.681-142.0057
		l-8.1649-0.4803L366.8048-217.286z M315.4155-207.8404l-7.5245,3.0418l37.8619,130.3175l-30.3387-133.358L315.4155-207.8404z
		 M420.1177-207.8404L389.861-74.4824l37.8619-130.3175l-7.6047-3.0418L420.1177-207.8404z"/>
	<path id="path3107" stroke="#000000" stroke-width="6.5614" d="M187.1909,809.7308l-6.4038,25.7741
		c0,0,26.8166,14.9503,40.7436,12.8076c13.9283-2.1429,56.7531-25.6946,56.7531-25.6946s-46.0639,8.6082-64.2788,4.3226
		c-18.238-4.2777-26.8191-17.2134-26.8191-17.2134L187.1909,809.7308z M295.2563,856.8782
		c-11.2592,0.1817-23.1765,4.1251-34.099,15.049c-32.3777,32.3777-91.4617,35.1006-96.1365,31.6989
		c-0.2052,6.3572-6.724,43.3051-6.724,43.3051s58.641-5.343,85.7316-12.8875c27.0906-7.5446,31.9729-36.4709,48.1874-49.3093
		c16.217-12.8384,49.3093-10.7263,49.3093-10.7263s-21.4971-17.5298-46.2662-17.1302L295.2563,856.8782z M165.0029,903.626
		c0.0292-0.9082-0.0522-1.176-0.3202-0.6404C164.5633,903.2241,164.7275,903.4256,165.0029,903.626z M355.4367,953.335
		c0,0-9.6674,11.761-49.3093,20.3321s-93.2548,3.2019-93.2548,3.2019s34.2962,6.4283,80.3678,13.9283
		s70.7621,45.0674,70.7621,45.0674l-8.5652-82.5297H355.4367z M216.7943,1023.8563c-9.5963-0.1765-18.2639,1.1346-25.295,4.4826
		c-44.9803,21.4143-51.461,2.1519-51.461,2.1519l-10.7328,54.5859c0,0,39.7036-32.1112,109.3462-28.8965
		c69.6402,3.2142,109.2643,12.8076,109.2643,12.8076s-79.2996-44.194-131.1192-45.1469L216.7943,1023.8563z M245.9957,1097.3976
		c-37.2701-0.2111-76.1156,6.0778-118.952,22.4133c-9.9564,79.8478-19.2783,155.7406,138.563,152.3312
		c121.3675-2.6217,115.8756-74.8475,104.7022-154.4111c-41.7938-11.5325-82.0737-20.093-124.3133-20.332V1097.3976z"/>
	<path id="path3109" stroke="#000000" stroke-width="6.5614" d="M568.6016,842.9537c0,0-25.7151,24.6792-83.5697,18.2509
		c-57.8648-6.4551-63.244-5.3792-63.244-5.3792l-5.2831,49.3093c0,0,20.8982-17.5804,58.915-16.0894
		c54.6424,2.1428,93.1754-46.1074,93.1754-46.1074L568.6016,842.9537z M597.4981,885.8593
		c-18.1315,31.3966-29.5574,31.1813-50.2699,33.1409c-22.9725,0.4507-61.1563,22.5734-61.1563,22.5734
		s42.219-11.0176,58.9944-10.086c26.0584,1.4473,43.8635,12.5927,61.077-1.761l-8.6451-43.8661V885.8593z M500.6418,978.5556
		c-4.5818,0.0153-9.4236,0.1644-14.5687,0.4803c-41.1611,2.5263-79.2484,13.9283-79.2484,13.9283l-5.3536,57.8392
		c0,0,32.183-30.0209,75.004-48.1874c35.3567-14.9997,102.8605-3.2818,102.8605-3.2818
		c-26.9036-13.7819-46.6146-20.9243-78.6874-20.8124L500.6418,978.5556z M562.5999,1037.3118
		c-57.4421,0.059-121.5135,49.9497-121.5135,49.9497s47.9825-13.698,110.3862-10.7264
		c67.4987,3.2142,86.7716,24.6547,86.7716,24.6547l-6.4038-41.7836c0,0,2.1241-13.9528-57.8751-21.4528
		c-3.7498-0.4688-7.5373-0.6443-11.3667-0.6404L562.5999,1037.3118z M520.3347,1097.4281
		c-42.2395,0.239-82.44,8.7996-124.2338,20.3322c-11.1744,79.5634-16.7446,151.7906,104.6228,154.4111
		c157.841,3.4097,148.5196-72.4834,138.563-152.3312c-42.8363-16.3357-81.6793-22.6244-118.952-22.4133V1097.4281z"/>
</g>
</svg>
